<?xml version="1.0" encoding="UTF-8"?>
<svg version="1.1" xmlns="http://www.w3.org/2000/svg" width="462" height="288">
<path d="M0 0 C0.75522949 0.00299103 1.51045898 0.00598206 2.28857422 0.00906372 C18.80256076 0.08389859 35.26097582 1.12725772 51.73242188 2.23901367 C62.99631044 2.99848266 74.21314965 3.57568542 85.5 3.8125 C107.00655644 4.40122344 124.91731658 11.61912671 140.125 27.125 C140.61484375 27.65609375 141.1046875 28.1871875 141.609375 28.734375 C146.62339147 33.39341685 152.19358169 35.67062651 158.53515625 37.9765625 C159.40264999 38.29910004 160.27014374 38.62163757 161.16392517 38.95394897 C163.91914644 39.9765983 166.67815489 40.98853743 169.4375 42 C171.29519053 42.68677373 173.15261532 43.37426675 175.00976562 44.0625 C177.62682664 45.03228576 180.24421292 46.00103557 182.86378479 46.96401978 C186.7230631 48.38329395 190.56825061 49.81850088 194.375 51.375 C193.24514611 54.76456166 192.63630237 55.16074251 189.77734375 57.07421875 C189.05869141 57.56083984 188.34003906 58.04746094 187.59960938 58.54882812 C186.84486328 59.04833984 186.09011719 59.54785156 185.3125 60.0625 C184.55388672 60.57361328 183.79527344 61.08472656 183.01367188 61.61132812 C181.13875915 62.87306185 179.2592038 64.12720179 177.375 65.375 C193.66590033 70.84576898 209.97960868 76.22518167 226.375 81.375 C222.0115908 86.02278618 217.11409568 89.81562646 212.0625 93.6875 C209.195625 95.894375 206.32875 98.10125 203.375 100.375 C217.565 104.005 231.755 107.635 246.375 111.375 C244.57287446 114.97925107 243.29454983 116.68337114 240.49609375 119.4140625 C239.74005859 120.15914063 238.98402344 120.90421875 238.20507812 121.671875 C237.41552734 122.44015625 236.62597656 123.2084375 235.8125 124 C234.24652109 125.53163169 232.68261061 127.06538195 231.12109375 128.6015625 C230.42685303 129.27783691 229.7326123 129.95411133 229.01733398 130.65087891 C227.29543505 132.28988551 227.29543505 132.28988551 226.375 134.375 C231.78227659 135.90650099 237.19000472 137.4363938 242.59814453 138.96484375 C244.43518146 139.48426618 246.27209754 140.00411622 248.10888672 140.52441406 C250.75976878 141.27523362 253.41109177 142.02447844 256.0625 142.7734375 C256.87428711 143.0037265 257.68607422 143.2340155 258.52246094 143.47128296 C263.45366668 144.86225827 268.39846872 146.15574984 273.375 147.375 C272.51399646 151.38953227 270.62683102 154.31733854 268.33984375 157.671875 C267.74267296 158.56232513 267.74267296 158.56232513 267.13343811 159.47076416 C265.86517853 161.3592003 264.58898588 163.24211723 263.3125 165.125 C262.44934038 166.40719585 261.58670405 167.68974414 260.72460938 168.97265625 C258.61411509 172.11088728 256.49649145 175.24419387 254.375 178.375 C257.85483678 181.29303181 261.36164053 183.62913937 265.33203125 185.828125 C266.99975586 186.75625 266.99975586 186.75625 268.70117188 187.703125 C269.85166016 188.33734375 271.00214844 188.9715625 272.1875 189.625 C273.36937697 190.28082426 274.55101994 190.93707039 275.73242188 191.59375 C278.61100952 193.19165988 281.49190267 194.78524584 284.375 196.375 C282.61216742 200.14391804 280.36481647 202.71516475 277.5 205.75 C274.00285271 209.4559322 271.09247993 213.09022932 268.375 217.375 C269.19355469 217.62636719 270.01210938 217.87773437 270.85546875 218.13671875 C274.93855439 219.57327607 278.78286653 221.32877113 282.6875 223.1875 C283.80983032 223.71827148 283.80983032 223.71827148 284.95483398 224.25976562 C290.21617676 226.7690302 295.33479858 229.44251918 300.375 232.375 C300.375 236.55178609 298.05842553 238.21368578 295.3125 241.0625 C294.30397125 242.13344053 293.29616001 243.2050572 292.2890625 244.27734375 C291.7930957 244.80183105 291.29712891 245.32631836 290.78613281 245.86669922 C287.89431414 248.95764312 285.13779741 252.16902348 282.375 255.375 C292.943449 258.77132383 303.62852352 261.60610849 314.375 264.375 C314.375 265.365 314.375 266.355 314.375 267.375 C311.91917028 269.0329067 309.51872793 270.50296444 306.9375 271.9375 C301.90272903 274.37440907 301.90272903 274.37440907 298.375 278.375 C299.550625 278.7153125 299.550625 278.7153125 300.75 279.0625 C305.49801625 280.78160933 309.89602552 283.05584721 314.375 285.375 C314.375 286.365 314.375 287.355 314.375 288.375 C220.325 288.375 126.275 288.375 29.375 288.375 C35.93196203 278.53955696 35.93196203 278.53955696 39.25 274.125 C43.6625037 268.08507098 47.60240178 261.83180553 51.375 255.375 C51.71031738 254.80297852 52.04563477 254.23095703 52.39111328 253.64160156 C60.19442757 240.17368683 67.12005316 225.05042686 68.375 209.375 C68.49681641 208.03115234 68.49681641 208.03115234 68.62109375 206.66015625 C69.08453643 196.87168512 66.53195512 186.70782336 60.109375 179.140625 C49.11635965 167.9495373 34.06249311 164.09896912 19.42633057 159.67858887 C-30.10459292 144.66578095 -30.10459292 144.66578095 -40.625 131.375 C-43.31642366 125.99215267 -41.44362726 119.37497651 -39.6640625 113.953125 C-36.56969253 106.27536493 -31.72643763 99.00467699 -25.625 93.375 C-24.965 93.375 -24.305 93.375 -23.625 93.375 C-17.19 104.76 -17.19 104.76 -10.625 116.375 C-6.47089361 109.73629 -6.47089361 109.73629 -2.51171875 103 C-1.98642578 102.07832031 -1.46113281 101.15664062 -0.91992188 100.20703125 C-0.12424805 98.80517578 -0.12424805 98.80517578 0.6875 97.375 C1.23728516 96.40949219 1.78707031 95.44398437 2.35351562 94.44921875 C3.69550269 92.09198929 5.0359627 89.73390592 6.375 87.375 C8.78618211 90.35297841 10.35054964 93.27888227 11.85546875 96.796875 C12.29697266 97.82167969 12.73847656 98.84648438 13.19335938 99.90234375 C13.64517578 100.96582031 14.09699219 102.02929688 14.5625 103.125 C15.02591797 104.20394531 15.48933594 105.28289062 15.96679688 106.39453125 C17.10767942 109.05266997 18.24354872 111.71283637 19.375 114.375 C24.96990635 111.31377634 30.1307463 107.83703607 35.3125 104.125 C36.09173828 103.57070312 36.87097656 103.01640625 37.67382812 102.4453125 C39.57629304 101.09141109 41.47660782 99.73460309 43.375 98.375 C42.80933991 93.87403974 41.63632485 90.37151958 39.64453125 86.3046875 C39.08830078 85.16 38.53207031 84.0153125 37.95898438 82.8359375 C37.37439453 81.65257813 36.78980469 80.46921875 36.1875 79.25 C35.62224609 78.08984375 35.05699219 76.9296875 34.47460938 75.734375 C30.82368674 68.25688396 27.10855126 60.81152053 23.375 53.375 C22.61316406 53.95507812 21.85132813 54.53515625 21.06640625 55.1328125 C3.56311881 68.375 3.56311881 68.375 1.375 68.375 C0.715 62.105 0.055 55.835 -0.625 49.375 C-6.2545881 54.07472558 -6.2545881 54.07472558 -10.9375 59.25 C-12.36328125 61.0546875 -12.36328125 61.0546875 -13.625 62.375 C-14.285 62.375 -14.945 62.375 -15.625 62.375 C-16.29810593 58.3135397 -16.96235482 54.25067904 -17.625 50.1875 C-17.81578125 49.03701172 -18.0065625 47.88652344 -18.203125 46.70117188 C-18.47382813 45.03344727 -18.47382813 45.03344727 -18.75 43.33203125 C-18.91757813 42.31085205 -19.08515625 41.28967285 -19.2578125 40.23754883 C-19.59914707 37.57654628 -19.69384702 35.05357932 -19.625 32.375 C-24.94003711 36.92502735 -24.94003711 36.92502735 -29.9375 41.8125 C-31.625 43.375 -31.625 43.375 -34.625 43.375 C-38.86893561 34.26190613 -40.45369751 24.75836622 -38 14.8515625 C-35.69011776 9.46871192 -31.64516891 6.19048232 -26.625 3.375 C-17.96744409 -0.04796929 -9.16132826 -0.09519872 0 0 Z M71.375 37.375 C70.78591495 41.57223095 70.89649386 44.85291232 73.375 48.375 C77.06829658 50.83719772 80.0899344 51.16698683 84.375 50.375 C87.3588283 48.38578114 88.97776841 46.98997432 89.8515625 43.4375 C90.13673735 39.47507055 89.60547397 37.71023486 87.3125 34.375 C80.90954008 30.01553792 76.0523908 32.01311298 71.375 37.375 Z " fill="#2584FF" transform="translate(147.625,-0.37499999999999994)"/>
<path d="M0 0 C1.8125 0.5 1.8125 0.5 4 2 C7.31413235 8.28542343 7.95027205 14.11034548 6 21 C4.01545314 24.35248517 1.62765668 27.13711641 -1 30 C-1.804375 31.010625 -2.60875 32.02125 -3.4375 33.0625 C-3.953125 33.701875 -4.46875 34.34125 -5 35 C-4.34 36.32 -3.68 37.64 -3 39 C-2.34 39 -1.68 39 -1 39 C3.59907383 45.13209844 4.90334675 50.43597655 4 58 C2.63398973 62.1692446 1.12241401 65.87758599 -2 69 C-4.125 68.625 -4.125 68.625 -6 68 C-6 67.34 -6 66.68 -6 66 C-6.66 66 -7.32 66 -8 66 C-13 60.52380952 -13 60.52380952 -13 58 C-13.66 58 -14.32 58 -15 58 C-16.23648491 56.29565594 -17.4675488 54.58689275 -18.66015625 52.8515625 C-20.51686905 50.28572615 -22.73530075 48.21322881 -25 46 C-26.59750132 44.32590615 -28.17963373 42.63707362 -29.75 40.9375 C-30.91789062 39.68259766 -30.91789062 39.68259766 -32.109375 38.40234375 C-34.91343495 34.83933369 -34.91343495 34.83933369 -35 32 C-31.10472137 25.4328696 -23.92929482 19.68273375 -18 15 C-17.34 15 -16.68 15 -16 15 C-16 14.34 -16 13.68 -16 13 C-14.30447324 11.76991196 -12.60440098 10.54527103 -10.875 9.36328125 C-8.31251732 7.5001428 -6.20628896 5.26591839 -4 3 C-2.68824014 1.97186389 -1.3630107 0.95915568 0 0 Z " fill="#2584FF" transform="translate(35,32)"/>
<path d="M0 0 C3.82095415 6.32845532 5.26377516 11.60534868 4 19 C2.64677743 22.24024229 0.9946768 25.11484249 -1 28 C-1.66 28 -2.32 28 -3 28 C-3 28.66 -3 29.32 -3 30 C-4.62553283 31.70680947 -6.29115995 33.37660195 -8 35 C-7.51789062 35.53109375 -7.03578125 36.0621875 -6.5390625 36.609375 C-5.59160156 37.66898438 -5.59160156 37.66898438 -4.625 38.75 C-3.99851563 39.44609375 -3.37203125 40.1421875 -2.7265625 40.859375 C2.00474563 46.72534074 1.73076068 52.68348143 1 60 C-0.45579218 64.41990514 -2.99949772 67.57112362 -7 70 C-8.5 68.6875 -8.5 68.6875 -10 67 C-10 66.01 -10 65.02 -10 64 C-10.66 64 -11.32 64 -12 64 C-12 63.34 -12 62.68 -12 62 C-12.66 62 -13.32 62 -14 62 C-15.53851766 60.28048026 -17.00731759 58.49812503 -18.4375 56.6875 C-21.45235569 52.83532998 -21.45235569 52.83532998 -24.78515625 49.26953125 C-26 48 -26 48 -26 46 C-26.66 46 -27.32 46 -28 46 C-30.1640625 43.76953125 -30.1640625 43.76953125 -32.625 40.8125 C-33.44226562 39.84957031 -34.25953125 38.88664062 -35.1015625 37.89453125 C-37 35 -37 35 -37.609375 32.46875 C-36.71489851 28.84497344 -34.37389388 27.00687921 -31.625 24.6875 C-30.86316406 24.0059082 -30.86316406 24.0059082 -30.0859375 23.31054688 C-26.30245536 20 -26.30245536 20 -24 20 C-24 19.34 -24 18.68 -24 18 C-22.30725716 16.43567213 -20.54430148 14.94671428 -18.75 13.5 C-17.77546875 12.7059375 -16.8009375 11.911875 -15.796875 11.09375 C-13.55105238 9.41251966 -11.5534197 8.11864101 -9 7 C-9 6.34 -9 5.68 -9 5 C-3.64285714 0 -3.64285714 0 0 0 Z " fill="#2584FF" transform="translate(69,34)"/>
<path d="M0 0 C2.31848335 0.92739334 3.71797829 1.57350401 5.11328125 3.68359375 C7.36658459 9.56997647 6.99481912 17.5424918 4.5 23.3125 C4.005 24.199375 3.51 25.08625 3 26 C2.34 26 1.68 26 1 26 C1 26.66 1 27.32 1 28 C-0.375 29.625 -0.375 29.625 -2 31 C-2.66 31 -3.32 31 -4 31 C-4 31.66 -4 32.32 -4 33 C-4.66 33 -5.32 33 -6 33 C-5.16855469 33.97839844 -5.16855469 33.97839844 -4.3203125 34.9765625 C-3.59585938 35.85054687 -2.87140625 36.72453125 -2.125 37.625 C-1.40570313 38.48351562 -0.68640625 39.34203125 0.0546875 40.2265625 C4.35633225 46.35942952 4.74352133 52.72642174 4 60 C2.5 63.6875 2.5 63.6875 1 66 C0.34 66 -0.32 66 -1 66 C-1.495 67.485 -1.495 67.485 -2 69 C-5.01696452 68.68063664 -5.9671248 68.03516163 -8.078125 65.77734375 C-9.15320313 64.37162109 -9.15320313 64.37162109 -10.25 62.9375 C-13.67848854 58.58422179 -17.23851807 54.6466834 -21.203125 50.78515625 C-23.68452235 48.31994193 -25.87969451 45.78290095 -28 43 C-28 42.34 -28 41.68 -28 41 C-28.66 41 -29.32 41 -30 41 C-32.65172446 38.34827554 -33.8906351 36.66985999 -34.5 32.9375 C-33.89129802 29.36137588 -32.84875253 28.17845782 -30 26 C-29.34 26 -28.68 26 -28 26 C-28 25.34 -28 24.68 -28 24 C-22.52380952 19 -22.52380952 19 -20 19 C-20 18.34 -20 17.68 -20 17 C-14.52380952 12 -14.52380952 12 -12 12 C-12 11.34 -12 10.68 -12 10 C-10.23947136 8.41929472 -8.41580202 6.90833714 -6.5625 5.4375 C-5.55316406 4.63183594 -4.54382813 3.82617188 -3.50390625 2.99609375 C-2.67761719 2.33738281 -1.85132813 1.67867187 -1 1 C-0.67 0.67 -0.34 0.34 0 0 Z " fill="#2584FF" transform="translate(98,36)"/>
</svg>
